<svg xmlns="http://www.w3.org/2000/svg" width="63" height="63" viewBox="0 0 63 63">
  <g id="Group_875" data-name="Group 875" transform="translate(-618 -864)">
    <g id="Group_251" data-name="Group 251" transform="translate(0 583)">
      <g id="Group_244" data-name="Group 244" transform="translate(437 16)">
        <circle id="Ellipse_82" data-name="Ellipse 82" cx="31.5" cy="31.5" r="31.5" transform="translate(181 265)" fill="#fff"/>
      </g>
    </g>
    <g id="Icon_19_" transform="translate(604.845 804.736)">
      <g id="Group_340" data-name="Group 340" transform="translate(32 80)">
        <path id="Path_871" data-name="Path 871" d="M55.779,80H34.5A2.51,2.51,0,0,0,32,82.5V98.147a2.51,2.51,0,0,0,2.5,2.5H55.779a2.51,2.51,0,0,0,2.5-2.5V82.5A2.51,2.51,0,0,0,55.779,80Zm-.313,5.319L45.141,92.2,34.816,85.319v-2.5L45.141,89.7l10.325-6.883Z" transform="translate(-32 -80)" fill="#2263de"/>
      </g>
    </g>
  </g>
</svg>
