<svg xmlns="http://www.w3.org/2000/svg" width="63" height="63" viewBox="0 0 63 63">
  <g id="Group_245" data-name="Group 245" transform="translate(-618 -281)">
    <g id="Group_244" data-name="Group 244" transform="translate(437 16)">
      <circle id="Ellipse_82" data-name="Ellipse 82" cx="31.5" cy="31.5" r="31.5" transform="translate(181 265)" fill="#fff"/>
    </g>
    <g id="Google" transform="translate(638 300)">
      <path id="Path_127" data-name="Path 127" d="M5.572,107.933a7.039,7.039,0,0,1,.888-3.442v-4.276H2.453a13.369,13.369,0,0,0,0,15.435H6.46v-4.276A7.039,7.039,0,0,1,5.572,107.933Z" transform="translate(0 -95.25)" fill="#fbbd00"/>
      <path id="Path_128" data-name="Path 128" d="M198.786,373.9,196,376.877l2.786,2.972a11.325,11.325,0,0,0,7.233-2.617v-4.271h-4A6.016,6.016,0,0,1,198.786,373.9Z" transform="translate(-186.9 -354.484)" fill="#0f9d58"/>
      <path id="Path_129" data-name="Path 129" d="M56.83,325.477l-4.007,4.276A12.662,12.662,0,0,0,53.852,331a11.445,11.445,0,0,0,8.4,3.715v-5.945A6.252,6.252,0,0,1,56.83,325.477Z" transform="translate(-50.37 -309.353)" fill="#31aa52"/>
      <path id="Path_130" data-name="Path 130" d="M267.886,200.231a13.625,13.625,0,0,0-.195-2.3l-.1-.609H256v5.945h5.639a6.554,6.554,0,0,1-2.409,2.756l4,4.271a12.362,12.362,0,0,0,1.172-1.1A13.04,13.04,0,0,0,267.886,200.231Z" transform="translate(-244.114 -187.548)" fill="#3c79e6"/>
      <path id="Path_131" data-name="Path 131" d="M203.251,7.918l.492.525,3.94-4.2-.492-.525A11.445,11.445,0,0,0,198.786,0L196,2.972l2.786,2.972A6.08,6.08,0,0,1,203.251,7.918Z" transform="translate(-186.9 0)" fill="#cf2d48"/>
      <path id="Path_132" data-name="Path 132" d="M62.255,5.945V0a11.446,11.446,0,0,0-8.4,3.715,12.658,12.658,0,0,0-1.029,1.25L56.829,9.24A6.252,6.252,0,0,1,62.255,5.945Z" transform="translate(-50.369 0)" fill="#eb4132"/>
    </g>
  </g>
</svg>
