<svg xmlns="http://www.w3.org/2000/svg" width="63" height="63" viewBox="0 0 63 63">
  <g id="Group_874" data-name="Group 874" transform="translate(-192 -864)">
    <g id="Group_253" data-name="Group 253" transform="translate(11 599)">
      <circle id="Ellipse_82" data-name="Ellipse 82" cx="31.5" cy="31.5" r="31.5" transform="translate(181 265)" fill="#fff"/>
    </g>
    <path id="Union_46" data-name="Union 46" d="M.743,23.936A.747.747,0,0,1,0,23.185V7.9A.889.889,0,0,1,.885,7.01H22.8a.89.89,0,0,1,.885.894V23.185a.747.747,0,0,1-.743.751ZM.885,5.508A.889.889,0,0,1,0,4.614V.751A.747.747,0,0,1,.743,0H22.936a.747.747,0,0,1,.743.751V4.614a.889.889,0,0,1-.885.894Zm8.73-2.754a.747.747,0,0,0,.743.751H20.947a.751.751,0,0,0,0-1.5H10.358A.747.747,0,0,0,9.615,2.754Zm-2.864,0a.737.737,0,1,0,.736-.744A.74.74,0,0,0,6.75,2.754Zm-2.44,0a.737.737,0,1,0,.736-.744A.74.74,0,0,0,4.311,2.754Zm-2.44,0a.737.737,0,1,0,.736-.744A.74.74,0,0,0,1.871,2.754Z" transform="translate(212 884)" fill="#2263de"/>
  </g>
</svg>
