<svg xmlns="http://www.w3.org/2000/svg" width="63" height="63" viewBox="0 0 63 63">
  <g id="Group_868" data-name="Group 868" transform="translate(-1044 -281)">
    <g id="Group_246" data-name="Group 246" transform="translate(426)">
      <g id="Group_244" data-name="Group 244" transform="translate(437 16)">
        <circle id="Ellipse_82" data-name="Ellipse 82" cx="31.5" cy="31.5" r="31.5" transform="translate(181 265)" fill="#fff"/>
      </g>
    </g>
    <path id="linkedin" d="M23.229,0H2.31A2.31,2.31,0,0,0,0,2.31V23.229a2.31,2.31,0,0,0,2.31,2.31H23.229a2.31,2.31,0,0,0,2.31-2.31V2.31A2.31,2.31,0,0,0,23.229,0ZM7.9,22.052a.672.672,0,0,1-.672.672H4.369a.672.672,0,0,1-.672-.672v-12a.672.672,0,0,1,.672-.672H7.231a.672.672,0,0,1,.672.672ZM5.8,8.252A2.719,2.719,0,1,1,8.518,5.533,2.719,2.719,0,0,1,5.8,8.252ZM22.859,22.106a.618.618,0,0,1-.618.618H19.17a.618.618,0,0,1-.618-.618V16.479c0-.839.246-3.678-2.194-3.678-1.893,0-2.277,1.943-2.354,2.815v6.49a.618.618,0,0,1-.618.618h-2.97a.618.618,0,0,1-.618-.618V10a.618.618,0,0,1,.618-.618h2.97A.618.618,0,0,1,14,10v1.047A4.216,4.216,0,0,1,17.97,9.182c4.917,0,4.889,4.594,4.889,7.118v5.806Z" transform="translate(1063 299.5)" fill="#0077b7"/>
  </g>
</svg>
