<svg xmlns="http://www.w3.org/2000/svg" width="63" height="63" viewBox="0 0 63 63">
  <g id="Group_873" data-name="Group 873" transform="translate(-1466 -571)">
    <g id="Group_250" data-name="Group 250" transform="translate(848 290)">
      <g id="Group_244" data-name="Group 244" transform="translate(437 16)">
        <circle id="Ellipse_82" data-name="Ellipse 82" cx="31.5" cy="31.5" r="31.5" transform="translate(181 265)" fill="#fff"/>
      </g>
    </g>
    <path id="_2922869" data-name="2922869" d="M14.673,15.441v7.078H11.626V15.863a.375.375,0,1,0-.75,0v6.656H7.83V15.441a1.126,1.126,0,0,1,1.125-1.125h4.594A1.126,1.126,0,0,1,14.673,15.441ZM20.861,11.9a3.837,3.837,0,0,1-3.927-.619.377.377,0,0,0-.489,0,3.837,3.837,0,0,1-4.948,0,.379.379,0,0,0-.491,0,3.837,3.837,0,0,1-4.949,0,.377.377,0,0,0-.489,0,3.832,3.832,0,0,1-3.926.619.375.375,0,0,0-.516.347v8.394A1.875,1.875,0,0,0,3,22.519H7.08V15.441a1.877,1.877,0,0,1,1.875-1.875h4.594a1.877,1.877,0,0,1,1.875,1.875v7.078H19.5a1.875,1.875,0,0,0,1.875-1.875V12.25A.375.375,0,0,0,20.861,11.9ZM2.814,6.394a.375.375,0,0,1-.374-.4.384.384,0,0,1,.387-.35H21.8a.375.375,0,0,0,.344-.524L20.033.245a.375.375,0,0,0-.344-.226H2.814A.375.375,0,0,0,2.47.245L.032,5.87A12.717,12.717,0,0,0,0,8.345a3.092,3.092,0,0,0,5.655,1.73.188.188,0,0,1,.313,0,3.093,3.093,0,0,0,5.125,0,.188.188,0,0,1,.313,0,3.093,3.093,0,0,0,5.124,0,.187.187,0,0,1,.31,0A3.093,3.093,0,0,0,22.5,8.3V6.769a.375.375,0,0,0-.375-.375H2.814Z" transform="translate(1486 590.981)" fill="#006cff"/>
  </g>
</svg>
