<svg xmlns="http://www.w3.org/2000/svg" width="63" height="63" viewBox="0 0 63 63">
  <g id="Group_872" data-name="Group 872" transform="translate(-1044 -571)">
    <g id="Group_249" data-name="Group 249" transform="translate(426 290)">
      <g id="Group_244" data-name="Group 244" transform="translate(437 16)">
        <circle id="Ellipse_82" data-name="Ellipse 82" cx="31.5" cy="31.5" r="31.5" transform="translate(181 265)" fill="#fff"/>
      </g>
    </g>
    <path id="Union_45" data-name="Union 45" d="M.9,20.6a.907.907,0,0,1-.9-.914V1.088A1.08,1.08,0,0,1,1.072,0H27.607a1.08,1.08,0,0,1,1.072,1.088v18.6a.907.907,0,0,1-.9.914ZM3.242,14a2.353,2.353,0,1,0,4.519-.892l2.645-2.6a2.308,2.308,0,0,0,1.969.125l.817.982a2.357,2.357,0,1,0,4.411.247l4.507-4.22h0A2.372,2.372,0,1,0,23.091,3.1a2.379,2.379,0,0,0-2.2,3.2l-4.423,4.142a2.307,2.307,0,0,0-1.986-.112l-.8-.967a2.357,2.357,0,1,0-4.4-.283L6.5,11.807a2.292,2.292,0,0,0-.908-.189A2.369,2.369,0,0,0,3.242,14Zm1.8,0a.545.545,0,1,1,.545.553A.55.55,0,0,1,5.043,14Zm9.767-1.467a.545.545,0,1,1,.545.553A.55.55,0,0,1,14.81,12.534ZM10.979,8.412a.545.545,0,1,1,.545.553A.55.55,0,0,1,10.979,8.412ZM22.547,5.477a.545.545,0,1,1,.545.553A.55.55,0,0,1,22.547,5.477Z" transform="translate(1061 592)" fill="#f55"/>
  </g>
</svg>
