<svg xmlns="http://www.w3.org/2000/svg" width="63" height="63" viewBox="0 0 63 63">
  <g id="Group_870" data-name="Group 870" transform="translate(-192 -571)">
    <circle id="Ellipse_82" data-name="Ellipse 82" cx="31.5" cy="31.5" r="31.5" transform="translate(192 571)" fill="#fff"/>
    <g id="tik-tok" transform="translate(180.724 587.34)">
      <g id="Group_254" data-name="Group 254" transform="translate(33.104 2.288)">
        <path id="Path_830" data-name="Path 830" d="M113.37,212.914a4.02,4.02,0,0,0-2.089,7.489,3.958,3.958,0,0,1-.644-2.112,4.052,4.052,0,0,1,4.078-4.089,4.211,4.211,0,0,1,1.283.2V209.9a8.866,8.866,0,0,0-1.283-.1h-.062v3.316A4.212,4.212,0,0,0,113.37,212.914Z" transform="translate(-108.144 -199.393)" fill="#f00044"/>
        <path id="Path_831" data-name="Path 831" d="M337.4,24h-1.2a6.887,6.887,0,0,0,2.6,4.15A6.938,6.938,0,0,1,337.4,24Z" transform="translate(-322.343 -24)" fill="#f00044"/>
        <path id="Path_832" data-name="Path 832" d="M110.712,144.423a6.976,6.976,0,0,1-1.288-.123v3.232a11.11,11.11,0,0,1-4.391-.891,11.472,11.472,0,0,1-2.5-1.456l.022,9.964a8.336,8.336,0,0,1-2.5,5.926,8.5,8.5,0,0,1-4.75,2.375,8.866,8.866,0,0,1-1.283.1,8.507,8.507,0,0,1-5.226-1.77,7.6,7.6,0,0,0,.543.588,8.536,8.536,0,0,0,6.032,2.47,8.866,8.866,0,0,0,1.283-.1,8.5,8.5,0,0,0,4.75-2.375,8.336,8.336,0,0,0,2.5-5.926l-.084-9.964a11,11,0,0,0,2.5,1.456,11.25,11.25,0,0,0,4.391.891" transform="translate(-88.8 -137.562)" fill="#f00044"/>
      </g>
      <path id="Path_833" data-name="Path 833" d="M33.631,190.57a8.524,8.524,0,0,1,5.982-2.481V186.9a8.866,8.866,0,0,0-1.283-.1,8.516,8.516,0,0,0-6.044,2.481A8.371,8.371,0,0,0,32.3,201.2a8.534,8.534,0,0,0,.8.7,8.343,8.343,0,0,1-1.96-5.371,8.445,8.445,0,0,1,2.493-5.96Z" transform="translate(0 -175.393)" fill="#08fff9"/>
      <path id="Path_834" data-name="Path 834" d="M386.956,100.688v-1.2h-.011A6.836,6.836,0,0,1,382.8,98.1,6.843,6.843,0,0,0,386.956,100.688Z" transform="translate(-333.228 -91.661)" fill="#08fff9"/>
      <path id="Path_835" data-name="Path 835" d="M148,25.152a4.208,4.208,0,0,0,1.512-.2,4.037,4.037,0,0,0,2.795-3.826l.006-6.665V2.288h3.2A6.977,6.977,0,0,1,155.386,1h-4.414V13.171l-.006,6.665a4.037,4.037,0,0,1-2.795,3.826,3.975,3.975,0,0,1-1.512.2,4.11,4.11,0,0,1-1.86-.566,4.086,4.086,0,0,0,3.2,1.86Z" transform="translate(-108.559)" fill="#08fff9"/>
      <path id="Path_836" data-name="Path 836" d="M62.268,49.888a8.5,8.5,0,0,0,4.75-2.375,8.336,8.336,0,0,0,2.5-5.926l-.022-9.964a11,11,0,0,0,2.5,1.456,11.25,11.25,0,0,0,4.391.891V30.738a6.843,6.843,0,0,1-4.156-2.588,6.862,6.862,0,0,1-2.6-4.15H66.413V36.171l-.006,6.665a4.037,4.037,0,0,1-2.795,3.826,3.975,3.975,0,0,1-1.512.2A4.087,4.087,0,0,1,58.9,45a4.02,4.02,0,0,1,2.089-7.489,4.211,4.211,0,0,1,1.283.2V34.4a8.524,8.524,0,0,0-5.982,2.481A8.389,8.389,0,0,0,53.8,42.837a8.282,8.282,0,0,0,1.96,5.371,8.519,8.519,0,0,0,5.226,1.77,8.137,8.137,0,0,0,1.283-.09Z" transform="translate(-22.656 -21.712)"/>
    </g>
  </g>
</svg>
