<svg xmlns="http://www.w3.org/2000/svg" xmlns:xlink="http://www.w3.org/1999/xlink" width="57" height="33" viewBox="0 0 57 33">
  <defs>
    <linearGradient id="linear-gradient" x1="0.5" x2="0.5" y2="1" gradientUnits="objectBoundingBox">
      <stop offset="0" stop-color="#ff7992"/>
      <stop offset="1" stop-color="#e12447"/>
    </linearGradient>
    <linearGradient id="linear-gradient-2" x1="0.5" y1="1" x2="0.5" gradientUnits="objectBoundingBox">
      <stop offset="0" stop-color="#0d78e4"/>
      <stop offset="1" stop-color="#1b9df2"/>
    </linearGradient>
  </defs>
  <g id="Group_901" data-name="Group 901" transform="translate(-1119 -1022)">
    <circle id="Ellipse_88" data-name="Ellipse 88" cx="14.5" cy="14.5" r="14.5" transform="translate(1147 1024)" fill="url(#linear-gradient)"/>
    <g id="_535234" data-name="535234" transform="translate(1154.037 1031.681)">
      <g id="Group_301" data-name="Group 301" transform="translate(0 0)">
        <path id="Path_856" data-name="Path 856" d="M11.261,30a3.63,3.63,0,0,0-2.267.784,5.165,5.165,0,0,0-1.327,1.6,5.164,5.164,0,0,0-1.327-1.6A3.63,3.63,0,0,0,4.073,30,4.162,4.162,0,0,0,0,34.418c0,2.721,2.185,4.583,5.492,7.4.562.479,1.2,1.021,1.86,1.6a.479.479,0,0,0,.631,0c.662-.579,1.3-1.121,1.86-1.6,3.307-2.818,5.491-4.68,5.491-7.4A4.162,4.162,0,0,0,11.261,30Z" transform="translate(0 -30)" fill="#fff"/>
      </g>
    </g>
    <g id="Ellipse_87" data-name="Ellipse 87" transform="translate(1119 1022)" stroke="#f4f7fa" stroke-width="2" fill="url(#linear-gradient-2)">
      <circle cx="16.5" cy="16.5" r="16.5" stroke="none"/>
      <circle cx="16.5" cy="16.5" r="15.5" fill="none"/>
    </g>
    <g id="_633991" data-name="633991" transform="translate(1128.556 1031.681)">
      <g id="Group_304" data-name="Group 304" transform="translate(0 5.886)">
        <g id="Group_303" data-name="Group 303">
          <path id="Path_858" data-name="Path 858" d="M1.471,224A1.473,1.473,0,0,0,0,225.471v4.709a1.473,1.473,0,0,0,1.471,1.471H3.237a1.461,1.461,0,0,0,.883-.3V224Z" transform="translate(0 -224)" fill="#fff"/>
        </g>
      </g>
      <g id="Group_306" data-name="Group 306" transform="translate(4.709 0)">
        <g id="Group_305" data-name="Group 305">
          <path id="Path_859" data-name="Path 859" d="M180.084,18.76a1.305,1.305,0,0,0-.383-.926,1.462,1.462,0,0,0,.377-1.124,1.521,1.521,0,0,0-1.535-1.334h-3.636a8.462,8.462,0,0,0,.468-2.354,2.4,2.4,0,0,0-1.766-2.354,1.851,1.851,0,0,0-1.067.358.3.3,0,0,0-.11.23v2l-1.7,3.672-.071.036v6.308a3.856,3.856,0,0,0,1.471.348h5.4a1.354,1.354,0,0,0,1.334-1.028,1.324,1.324,0,0,0-.107-.884,1.318,1.318,0,0,0,.589-1.766A1.318,1.318,0,0,0,180.084,18.76Z" transform="translate(-170.667 -10.667)" fill="#fff"/>
        </g>
      </g>
    </g>
  </g>
</svg>
