<svg xmlns="http://www.w3.org/2000/svg" width="31" height="31" viewBox="0 0 31 31">
  <g id="Group_82" data-name="Group 82" transform="translate(-0.109 -0.219)">
    <circle id="Ellipse_35" data-name="Ellipse 35" cx="15.5" cy="15.5" r="15.5" transform="translate(0.109 0.219)" fill="#306ca7"/>
    <path id="Subtraction_13" data-name="Subtraction 13" d="M16.424,17.376H13.792a.536.536,0,0,1-.53-.54V11.925c0-.054,0-.117,0-.188a3.669,3.669,0,0,0-.623-2.542,1.677,1.677,0,0,0-1.261-.479c-1.629,0-1.953,1.718-2.017,2.457v5.664a.536.536,0,0,1-.53.54H6.287a.536.536,0,0,1-.53-.54V6.272a.535.535,0,0,1,.53-.539H8.833a.535.535,0,0,1,.53.539v.914a3.591,3.591,0,0,1,3.4-1.629A3.6,3.6,0,0,1,16.43,7.816a10.5,10.5,0,0,1,.524,3.917v5.1A.536.536,0,0,1,16.424,17.376Zm-12.867,0H1.1a.583.583,0,0,1-.577-.587V6.319A.582.582,0,0,1,1.1,5.733H3.557a.582.582,0,0,1,.577.586V16.789A.583.583,0,0,1,3.557,17.376ZM2.33,4.746A2.354,2.354,0,0,1,0,2.373,2.355,2.355,0,0,1,2.33,0,2.355,2.355,0,0,1,4.66,2.373,2.354,2.354,0,0,1,2.33,4.746Z" transform="translate(7.419 7.439)" fill="#fff"/>
  </g>
</svg>
