<svg xmlns="http://www.w3.org/2000/svg" width="31" height="31" viewBox="0 0 31 31">
  <path id="Union_24" data-name="Union 24" d="M4.54,26.46A15.5,15.5,0,0,1,26.461,4.54,15.5,15.5,0,0,1,4.54,26.46ZM1.094,15.5A14.407,14.407,0,1,0,15.5,1.093,14.423,14.423,0,0,0,1.094,15.5ZM11.5,27.84l4.031-10.668L19.326,27.9A13.031,13.031,0,0,1,11.5,27.84ZM2.531,15.5a12.931,12.931,0,0,1,1.036-5.087L9.42,26.958A12.968,12.968,0,0,1,2.531,15.5Zm23.527-1.053a12.034,12.034,0,0,0,.429-1.225l.2-.56h-.052a9.166,9.166,0,0,0,.155-3.553A12.974,12.974,0,0,1,21.6,26.949Zm-8.9-4.88h1.874V8.31h-8V9.567h1.807l2.025,5.726L12.255,22.76,7.588,9.567H9.3V8.31H4.705A12.97,12.97,0,0,1,24.4,6.068c-.071-.007-.143-.011-.217-.011A2.482,2.482,0,0,0,21.7,8.539c0,1.371,4,3.284,1.8,9.426L21.828,22.76Z" transform="translate(0 0)" fill="#00769d"/>
</svg>
