<svg xmlns="http://www.w3.org/2000/svg" width="70.703" height="70.703" viewBox="0 0 70.703 70.703">
  <g id="Group_900" data-name="Group 900" transform="translate(-1467.776 -600.539)">
    <path id="Path_2979" data-name="Path 2979" d="M35.352,0A35.352,35.352,0,1,1,0,35.352,35.352,35.352,0,0,1,35.352,0Z" transform="translate(1467.776 600.539)" fill="#2263de"/>
    <path id="Union_16" data-name="Union 16" d="M0,23.074a9.945,9.945,0,0,1,.565-.933c.315-.468.708-.992,1.166-1.556a7.647,7.647,0,0,1,1.7-1.522,10.248,10.248,0,0,1,1.778-.939,11.558,11.558,0,0,1,1.4-.475c.35-.093.566-.131.568-.132a4.117,4.117,0,0,1,1.082-.166,2.256,2.256,0,0,1,.417.036,8.386,8.386,0,0,0,1.222.9,8.618,8.618,0,0,0,1.389.675,8.807,8.807,0,0,0,1.527.426,9.044,9.044,0,0,0,1.633.148,8.7,8.7,0,0,0,5.718-2.1,1.558,1.558,0,0,1,.3-.1h.064a5.886,5.886,0,0,1,.98.1,10.358,10.358,0,0,1,1.975.567c.479.248.931.5,1.343.752.4.241.768.489,1.105.735s.624.478.9.72a9.274,9.274,0,0,1,.715.708,7.558,7.558,0,0,1,1,1.39,8.533,8.533,0,0,1,.465.981c-2.073,5.22-7.765,8.969-14.462,8.969C7.756,32.26,2,28.407,0,23.074ZM5.739,8.67a8.774,8.774,0,0,1,17.548,0,8.774,8.774,0,0,1-17.548,0Z" transform="translate(1488.516 619.028)" fill="#fff"/>
  </g>
</svg>
