<svg id="Group_220" data-name="Group 220" xmlns="http://www.w3.org/2000/svg" width="70.703" height="70.703" viewBox="0 0 70.703 70.703">
  <circle id="Ellipse_78" data-name="Ellipse 78" cx="35.352" cy="35.352" r="35.352" transform="translate(0 0)" fill="#1e97d4"/>
  <g id="Layer_x0020_1" transform="translate(21.398 20.788)">
    <path id="Path_121" data-name="Path 121" d="M5143.171,1446.89h8.332a2.248,2.248,0,0,1,2.242,2.242v8.652a2.248,2.248,0,0,1-2.242,2.242h-8.332a2.248,2.248,0,0,1-2.241-2.242v-8.652A2.248,2.248,0,0,1,5143.171,1446.89Z" transform="translate(-5140.93 -1446.89)" fill="#fff" fill-rule="evenodd"/>
    <path id="Path_122" data-name="Path 122" d="M5143.171,4711.279h8.332a2.248,2.248,0,0,1,2.242,2.242v8.652a2.248,2.248,0,0,1-2.242,2.242h-8.332a2.248,2.248,0,0,1-2.241-2.242v-8.652A2.248,2.248,0,0,1,5143.171,4711.279Z" transform="translate(-5140.93 -4695.58)" fill="#fff" fill-rule="evenodd"/>
    <path id="Path_123" data-name="Path 123" d="M8664.146,4998.61h0a1.022,1.022,0,0,1,1.02,1.02v2.746h2.744a1.023,1.023,0,0,1,1.021,1.02h0a1.022,1.022,0,0,1-1.021,1.02h-2.744v2.747a1.022,1.022,0,0,1-1.02,1.02h0a1.022,1.022,0,0,1-1.018-1.02v-2.747h-2.748a1.022,1.022,0,0,1-1.02-1.02h0a1.022,1.022,0,0,1,1.02-1.02h2.748v-2.746A1.021,1.021,0,0,1,8664.146,4998.61Z" transform="translate(-8642.438 -4981.529)" fill="#fff" fill-rule="evenodd"/>
    <path id="Path_124" data-name="Path 124" d="M8274.392,1446.89h8.332a2.248,2.248,0,0,1,2.242,2.242v8.652a2.248,2.248,0,0,1-2.242,2.242h-8.332a2.248,2.248,0,0,1-2.242-2.242v-8.652A2.248,2.248,0,0,1,8274.392,1446.89Z" transform="translate(-8257.091 -1446.89)" fill="#fff" fill-rule="evenodd"/>
  </g>
</svg>
