<svg xmlns="http://www.w3.org/2000/svg" width="65" height="65" viewBox="0 0 65 65">
  <g id="Group_220" data-name="Group 220" transform="translate(-237 -305)">
    <circle id="Ellipse_78" data-name="Ellipse 78" cx="32.5" cy="32.5" r="32.5" transform="translate(237 305)" fill="#fff"/>
    <g id="Layer_x0020_1" transform="translate(-4884.433 -1122.273)">
      <path id="Path_121" data-name="Path 121" d="M5143.01,1446.89h7.73a2.086,2.086,0,0,1,2.081,2.08V1457a2.086,2.086,0,0,1-2.081,2.081h-7.73a2.086,2.086,0,0,1-2.08-2.081v-8.027A2.086,2.086,0,0,1,5143.01,1446.89Z" fill="#1e97d4" fill-rule="evenodd"/>
      <path id="Path_122" data-name="Path 122" d="M5143.01,4711.279h7.73a2.086,2.086,0,0,1,2.081,2.08v8.028a2.086,2.086,0,0,1-2.081,2.08h-7.73a2.086,2.086,0,0,1-2.08-2.08v-8.028A2.086,2.086,0,0,1,5143.01,4711.279Z" transform="translate(0 -3249.823)" fill="#1e97d4" fill-rule="evenodd"/>
      <path id="Path_123" data-name="Path 123" d="M8663.8,4998.61h0a.948.948,0,0,1,.946.946v2.548h2.547a.949.949,0,0,1,.946.946h0a.948.948,0,0,1-.946.946h-2.547v2.549a.948.948,0,0,1-.946.946h0a.948.948,0,0,1-.944-.946V5004h-2.55a.947.947,0,0,1-.945-.946h0a.948.948,0,0,1,.945-.946h2.55v-2.548A.948.948,0,0,1,8663.8,4998.61Z" transform="translate(-3502.731 -3535.872)" fill="#1e97d4" fill-rule="evenodd"/>
      <path id="Path_124" data-name="Path 124" d="M8274.229,1446.89h7.73a2.086,2.086,0,0,1,2.08,2.08V1457a2.086,2.086,0,0,1-2.08,2.081h-7.73a2.086,2.086,0,0,1-2.08-2.081v-8.027A2.086,2.086,0,0,1,8274.229,1446.89Z" transform="translate(-3117.248)" fill="#1e97d4" fill-rule="evenodd"/>
    </g>
  </g>
</svg>
