<svg xmlns="http://www.w3.org/2000/svg" width="30" height="30" viewBox="0 0 30 30"><g id="Group_867" data-name="Group 867" transform="translate(-527 -46)"><circle id="Ellipse_78" cx="15" cy="15" r="15" fill="#2263de" data-name="Ellipse 78" transform="translate(527 46)"/><g id="_726186" data-name="726186" transform="translate(534.984 54)"><g id="Group_227" data-name="Group 227" transform="translate(0.016 3.389)"><g id="Group_226" data-name="Group 226"><path id="Path_826" fill="#fff" d="M6.881,131.6v-5.236c-.148.014-.3.037-.445.044H2.161a.429.429,0,0,0-.429.429v.429H.445a.429.429,0,0,0-.429.429v2.574a.429.429,0,0,0,.429.429H1.732v.429a.429.429,0,0,0,.429.429h.26l1.725,4.6a.853.853,0,0,0,.632.534.84.84,0,0,0,.775-.236l1.031-1.022a.856.856,0,0,0,.158-.993L5.3,131.561h1.14C6.589,131.568,6.734,131.591,6.881,131.6Z" data-name="Path 826" transform="translate(-0.016 -126.368)"/></g></g><g id="Group_229" data-name="Group 229" transform="translate(7.739)"><g id="Group_228" data-name="Group 228"><path id="Path_827" fill="#fff" d="M293.953.208a.306.306,0,0,0-.027-.04.424.424,0,0,0-.179-.137s0,0-.007-.005-.016,0-.025,0a.427.427,0,0,0-.12-.024.4.4,0,0,0-.083.017.474.474,0,0,0-.048.009.426.426,0,0,0-.188.122s-.009,0-.012.008a9.03,9.03,0,0,1-5.247,3.109V8.75a9.029,9.029,0,0,1,5.247,3.108s.009.006.014.011a.416.416,0,0,0,.106.082c.013.008.023.019.036.025a.442.442,0,0,0,.175.038.448.448,0,0,0,.145-.025s0,0,.007-.005a.417.417,0,0,0,.179-.137c.01-.014.018-.026.027-.04a.415.415,0,0,0,.07-.221V.429A.415.415,0,0,0,293.953.208Z" data-name="Path 827" transform="translate(-288.016)"/></g></g></g></g></svg>