<svg xmlns="http://www.w3.org/2000/svg" xmlns:xlink="http://www.w3.org/1999/xlink" width="1920" height="1669" viewBox="0 0 1920 1669"><defs><linearGradient id="linear-gradient" x1=".5" x2=".5" y2="1" gradientUnits="objectBoundingBox"><stop offset="0" stop-color="#1dbece"/><stop offset="1" stop-color="#1f94d5"/></linearGradient><filter id="Rectangle_213" width="488.074" height="579.572" x="504.228" y="465.921" filterUnits="userSpaceOnUse"><feOffset dy="20" input="SourceAlpha"/><feGaussianBlur result="blur" stdDeviation="20"/><feFlood flood-color="#e2f1ff"/><feComposite in2="blur" operator="in"/><feComposite in="SourceGraphic"/></filter><linearGradient id="linear-gradient-2" x1=".5" x2=".5" y2="1" gradientUnits="objectBoundingBox"><stop offset="0" stop-color="#fe79bd"/><stop offset="1" stop-color="#fca495"/></linearGradient><linearGradient id="linear-gradient-3" x1=".5" x2=".5" y2="1" gradientUnits="objectBoundingBox"><stop offset="0" stop-color="#fd79bc"/><stop offset="1" stop-color="#fca395"/></linearGradient><clipPath id="clip-Dashboard"><rect width="1920" height="1669"/></clipPath></defs><g id="Dashboard" clip-path="url(#clip-Dashboard)"><rect width="1920" height="1669" fill="#fff"/><text id="Hello_Austin_Welcome_back_" fill="#777" data-name="Hello Austin, Welcome back!" font-family="Rubik-Regular, Rubik" font-size="29" transform="translate(134 195)"><tspan x="0" y="0">Hello Austin, Welcome back!</tspan></text><g id="Group_893" data-name="Group 893" transform="translate(134 502.798)"><g filter="url(#Rectangle_213)" transform="matrix(1, 0, 0, 1, -134, -502.8)"><rect id="Rectangle_213-2" width="368.074" height="459.572" fill="url(#linear-gradient)" data-name="Rectangle 213" opacity=".2" rx="20" transform="translate(564.23 505.92)"/></g><rect id="Rectangle_215" width="369.113" height="459.572" fill="url(#linear-gradient-2)" data-name="Rectangle 215" opacity=".2" rx="20" transform="translate(855.488 3.123)"/><g id="Group_877" data-name="Group 877" transform="translate(0 0)"><rect id="Rectangle_765" width="367.519" height="459.129" fill="#f4f5f7" data-name="Rectangle 765" rx="20" transform="matrix(1, -0.017, 0.017, 1, 10.964, 17.002)"/><g id="Rectangle_28" fill="#eaeff9" stroke="#6fa1ff" stroke-width="1" data-name="Rectangle 28" transform="matrix(1, -0.017, 0.017, 1, 0, 6.414)"><rect width="367.519" height="459.129" stroke="none" rx="20"/><rect width="366.519" height="458.129" x=".5" y=".5" fill="none" rx="19.5"/></g><g id="Group_219" data-name="Group 219" transform="matrix(1, -0.017, 0.017, 1, 64.156, 100.152)"><circle id="Ellipse_78" cx="35.027" cy="35.027" r="35.027" fill="#2263de" data-name="Ellipse 78" transform="translate(0 0)"/><path id="Union_15" fill="#fff" d="M9.7,24.25V19.4H4.85a4.85,4.85,0,1,1,0-9.7H9.7V4.85a4.85,4.85,0,1,1,9.7,0V9.7H24.25a4.85,4.85,0,1,1,0,9.7H19.4v4.85a4.85,4.85,0,0,1-9.7,0Z" data-name="Union 15" transform="translate(20.478 20.478)"/></g><text id="Start_creating_copy_here" fill="#2263de" data-name="Start creating copy here" font-family="Rubik-Regular, Rubik" font-size="48" transform="matrix(1, -0.017, 0.017, 1, 66.54, 236.742)"><tspan x="0" y="0">Start </tspan><tspan x="0" y="52">creating </tspan><tspan x="0" y="104">copy here</tspan></text><text id="_SEEHOW" fill="#2263de" data-name="#SEEHOW" font-family="Rubik-Light, Rubik" font-size="19" font-weight="300" transform="matrix(1, -0.017, 0.017, 1, 69.192, 388.628)"><tspan x="0" y="0">#SEEHOW</tspan></text></g><g id="Group_220" data-name="Group 220" transform="translate(482.216 97.741)"><circle id="Ellipse_78-2" cx="35.352" cy="35.352" r="35.352" fill="#1e97d4" data-name="Ellipse 78" transform="translate(0 0)"/><g id="Layer_x0020_1" transform="translate(21.398 20.788)"><path id="Path_121" fill="#fff" fill-rule="evenodd" d="M5143.171,1446.89h8.332a2.248,2.248,0,0,1,2.242,2.242v8.652a2.248,2.248,0,0,1-2.242,2.242h-8.332a2.248,2.248,0,0,1-2.241-2.242v-8.652A2.248,2.248,0,0,1,5143.171,1446.89Z" data-name="Path 121" transform="translate(-5140.93 -1446.89)"/><path id="Path_122" fill="#fff" fill-rule="evenodd" d="M5143.171,4711.279h8.332a2.248,2.248,0,0,1,2.242,2.242v8.652a2.248,2.248,0,0,1-2.242,2.242h-8.332a2.248,2.248,0,0,1-2.241-2.242v-8.652A2.248,2.248,0,0,1,5143.171,4711.279Z" data-name="Path 122" transform="translate(-5140.93 -4695.58)"/><path id="Path_123" fill="#fff" fill-rule="evenodd" d="M8664.146,4998.61h0a1.022,1.022,0,0,1,1.02,1.02v2.746h2.744a1.023,1.023,0,0,1,1.021,1.02h0a1.022,1.022,0,0,1-1.021,1.02h-2.744v2.747a1.022,1.022,0,0,1-1.02,1.02h0a1.022,1.022,0,0,1-1.018-1.02v-2.747h-2.748a1.022,1.022,0,0,1-1.02-1.02h0a1.022,1.022,0,0,1,1.02-1.02h2.748v-2.746A1.021,1.021,0,0,1,8664.146,4998.61Z" data-name="Path 123" transform="translate(-8642.438 -4981.529)"/><path id="Path_124" fill="#fff" fill-rule="evenodd" d="M8274.392,1446.89h8.332a2.248,2.248,0,0,1,2.242,2.242v8.652a2.248,2.248,0,0,1-2.242,2.242h-8.332a2.248,2.248,0,0,1-2.242-2.242v-8.652A2.248,2.248,0,0,1,8274.392,1446.89Z" data-name="Path 124" transform="translate(-8257.091 -1446.89)"/></g></g><text id="All_created_copies" fill="#1e98d4" data-name="All created copies" font-family="Rubik-Regular, Rubik" font-size="48" transform="translate(482.216 234.239)"><tspan x="0" y="0">All </tspan><tspan x="0" y="52">created</tspan><tspan x="0" y="104">copies</tspan></text><text id="_SEEHOW-2" fill="#1e99d4" data-name="#SEEHOW" font-family="Rubik-Light, Rubik" font-size="19" font-weight="300" transform="translate(482.216 386.077)"><tspan x="0" y="0">#SEEHOW</tspan></text><g id="Group_221" data-name="Group 221" transform="translate(908.516 97.741)"><ellipse id="Ellipse_78-3" cx="34.832" cy="35.352" fill="url(#linear-gradient-3)" data-name="Ellipse 78" rx="34.832" ry="35.352" transform="translate(0 0)"/><path id="_121729" fill="#fff" d="M23.582,10.346a9.269,9.269,0,0,0-7.157,3.388A9.264,9.264,0,0,0,0,19.614c0,4,2.386,8.63,7.092,13.757a68.3,68.3,0,0,0,8.682,7.843l.651.489.65-.489a68.3,68.3,0,0,0,8.683-7.843c4.706-5.127,7.092-9.756,7.092-13.757A9.278,9.278,0,0,0,23.582,10.346Z" data-name="121729" transform="translate(18.125 8.699)"/></g><text id="My_favourite_copies" fill="#fc91a6" data-name="My favourite copies" font-family="Rubik-Regular, Rubik" font-size="48" transform="translate(908.516 234.239)"><tspan x="0" y="0">My </tspan><tspan x="0" y="52">favourite</tspan><tspan x="0" y="104">copies</tspan></text><text id="_SEEHOW-3" fill="#fc91a6" data-name="#SEEHOW" font-family="Rubik-Light, Rubik" font-size="19" font-weight="300" transform="translate(908.516 386.077)"><tspan x="0" y="0">#SEEHOW</tspan></text><rect id="Rectangle_234" width="369.113" height="459.572" fill="#d2e0f9" data-name="Rectangle 234" opacity=".397" rx="20" transform="translate(1281.788 3.123)"/><circle id="Ellipse_78-4" cx="35.352" cy="35.352" r="35.352" fill="#2263de" data-name="Ellipse 78" opacity=".399" transform="translate(1333.776 97.741)"/><text id="Account_Overview" fill="#2263de" data-name="Account Overview" font-family="Rubik-Regular, Rubik" font-size="32" transform="translate(1427.354 120.463)"><tspan x="0" y="0">Account </tspan><tspan x="0" y="38">Overview</tspan></text><text id="Account_Type" fill="#2263de" data-name="Account Type" font-family="Rubik-Light, Rubik" font-size="20" font-weight="300" transform="translate(1333.776 241.512)"><tspan x="0" y="0">Account Type</tspan></text><path id="Union_16" fill="#2263de" d="M0,23.074a9.945,9.945,0,0,1,.565-.933c.315-.468.708-.992,1.166-1.556a7.647,7.647,0,0,1,1.7-1.522,10.248,10.248,0,0,1,1.778-.939,11.558,11.558,0,0,1,1.4-.475c.35-.093.566-.131.568-.132a4.117,4.117,0,0,1,1.082-.166,2.256,2.256,0,0,1,.417.036,8.386,8.386,0,0,0,1.222.9,8.618,8.618,0,0,0,1.389.675,8.807,8.807,0,0,0,1.527.426,9.044,9.044,0,0,0,1.633.148,8.7,8.7,0,0,0,5.718-2.1,1.558,1.558,0,0,1,.3-.1h.064a5.886,5.886,0,0,1,.98.1,10.358,10.358,0,0,1,1.975.567c.479.248.931.5,1.343.752.4.241.768.489,1.105.735s.624.478.9.72a9.274,9.274,0,0,1,.715.708,7.558,7.558,0,0,1,1,1.39,8.533,8.533,0,0,1,.465.981c-2.073,5.22-7.765,8.969-14.462,8.969C7.756,32.26,2,28.407,0,23.074ZM5.739,8.67a8.774,8.774,0,0,1,17.548,0,8.774,8.774,0,0,1-17.548,0Z" data-name="Union 16" transform="translate(1354.516 116.231)"/><text id="Workspace" fill="#2263de" font-family="Rubik-Light, Rubik" font-size="20" font-weight="300" transform="translate(1333.776 289.34)"><tspan x="0" y="0">Workspace</tspan></text><text id="Invited_Team" fill="#2263de" data-name="Invited Team" font-family="Rubik-Light, Rubik" font-size="20" font-weight="300" transform="translate(1333.776 337.169)"><tspan x="0" y="0">Invited Team</tspan></text><text id="More_" fill="#2263de" data-name="More…" font-family="Rubik-Medium, Rubik" font-size="20" font-weight="500" transform="translate(1333.776 382.918)"><tspan x="0" y="0">More…</tspan></text><rect id="Rectangle_235" width="92.538" height="36.391" fill="#fff" data-name="Rectangle 235" opacity=".501" rx="10" transform="translate(1498.058 217.313)"/><rect id="Rectangle_236" width="92.538" height="36.391" fill="#fff" data-name="Rectangle 236" opacity=".501" rx="10" transform="translate(1498.058 265.142)"/><rect id="Rectangle_237" width="92.538" height="37.431" fill="#fff" data-name="Rectangle 237" opacity=".501" rx="10" transform="translate(1498.058 310.891)"/><text id="Basic" fill="#2263de" font-family="Rubik-Regular, Rubik" font-size="18" transform="translate(1520.932 241.591)"><tspan x="0" y="0">Basic</tspan></text><text id="_2_5" fill="#2263de" data-name="2/5" font-family="Rubik-Regular, Rubik" font-size="19" transform="translate(1528.211 290.42)"><tspan x="0" y="0">2/5</tspan></text><text id="_3_10" fill="#2263de" data-name="3/10" font-family="Rubik-Regular, Rubik" font-size="18" transform="translate(1524.052 337.249)"><tspan x="0" y="0">3/10</tspan></text></g><g id="Group_299" data-name="Group 299" transform="translate(137.928 1059.101)"><rect id="Rectangle_239" width="918.105" height="489.695" fill="#d2e0f9" data-name="Rectangle 239" opacity=".151" rx="20" transform="translate(0)"/><g id="Group_222" data-name="Group 222" transform="translate(72.655 431.255)"><rect id="Rectangle_157" width="716.392" height="17.676" fill="#2c6adf" data-name="Rectangle 157" transform="translate(57.315 0.214)"/><g id="Group_93" data-name="Group 93" transform="translate(0)"><g id="Play" transform="translate(0)"><path id="Path_825" fill="#2c6adf" fill-rule="evenodd" d="M31.654,7.456,20.093.171A2.073,2.073,0,0,0,19.006,0,1.124,1.124,0,0,0,17.73,1.242V16.131a1.137,1.137,0,0,0,1.276,1.241,2.074,2.074,0,0,0,1.087-.17L31.654,9.918c.949-.565.785-1.231.785-1.231S32.6,8.02,31.654,7.456Z" data-name="Path 825" transform="translate(-17.73 0)"/></g><rect id="Rectangle_158" width="15.795" height="17.374" fill="#2c6adf" data-name="Rectangle 158" rx="2" transform="translate(27.356)"/></g></g><g id="Play-2" data-name="Play" transform="translate(431.265 200.29)"><path id="Path_825-2" fill="#2c6adf" fill-rule="evenodd" d="M71.517,28.8,26.858.663a8.009,8.009,0,0,0-4.2-.655C17.708.008,17.73,3.832,17.73,4.8V62.31c0,.819-.022,4.793,4.931,4.793a8.012,8.012,0,0,0,4.2-.655L71.516,38.31c3.666-2.181,3.032-4.755,3.032-4.755S75.182,30.981,71.517,28.8Z" data-name="Path 825" transform="translate(-17.73 0)"/></g></g><rect id="Rectangle_294" width="303.508" height="67.584" fill="#d2e0f9" data-name="Rectangle 294" opacity=".2" rx="5" transform="translate(1111.14 1059.071)"/><rect id="Rectangle_296" width="673.762" height="124.771" fill="#f4f5f7" data-name="Rectangle 296" rx="17" transform="translate(1111.14 1297.175)"/><rect id="Rectangle_297" width="673.762" height="124.771" fill="#f4f5f7" data-name="Rectangle 297" rx="17" transform="translate(1111.14 1440.662)"/><text id="Getting_Started_With_CopyKart_Video_1" fill="#2263de" data-name="Getting Started With CopyKart Video 1" font-family="Rubik-Regular, Rubik" font-size="22" transform="translate(137.928 1607.228)"><tspan x="0" y="0">Getting Started With CopyKart Video 1</tspan></text><g id="Group_878" data-name="Group 878" transform="translate(1015.482 1595.585)"><circle id="Ellipse_111" cx="4.679" cy="4.679" r="4.679" fill="#2c6adf" data-name="Ellipse 111" transform="translate(0)"/><circle id="Ellipse_112" cx="4.679" cy="4.679" r="4.679" fill="#2c6adf" data-name="Ellipse 112" transform="translate(12.477)"/><circle id="Ellipse_113" cx="4.679" cy="4.679" r="4.679" fill="#2c6adf" data-name="Ellipse 113" transform="translate(24.954)"/></g><rect id="Rectangle_766" width="673.762" height="124.771" fill="#f4f5f7" data-name="Rectangle 766" opacity=".851" rx="17" transform="translate(1111.14 1150.57)"/><g id="Group_879" data-name="Group 879" transform="translate(1150.651 1174.484)"><ellipse id="Ellipse_82" cx="35.872" cy="35.352" fill="#c4e2ff" data-name="Ellipse 82" rx="35.872" ry="35.352" transform="translate(0 0)"/><path id="Path_829" fill="#1976d2" d="M205.562,105.041h-4.521v-3.617c0-1,.81-.9,1.808-.9h1.808V96h-3.617a5.425,5.425,0,0,0-5.425,5.425v3.617H192v4.521h3.617v9.946h5.425v-9.946h2.712Z" data-name="Path 829" transform="translate(-162.506 -72.621)"/></g><g id="Group_880" data-name="Group 880" transform="translate(1150.651 1324.209)"><g id="Group_247" data-name="Group 247" transform="translate(0 0)"><g id="Group_244" data-name="Group 244" transform="translate(0)"><circle id="Ellipse_82-2" cx="35.872" cy="35.872" r="35.872" fill="#ffd9db" data-name="Ellipse 82" transform="translate(0)"/></g></g><g id="instagram" transform="translate(20.392 20.409)"><path id="Path_837" fill="#c64353" d="M21.85,0H9.271A9.281,9.281,0,0,0,0,9.271V21.85a9.281,9.281,0,0,0,9.271,9.271H21.85a9.281,9.281,0,0,0,9.271-9.271V9.271A9.282,9.282,0,0,0,21.85,0Zm6.14,21.85a6.14,6.14,0,0,1-6.14,6.14H9.271a6.14,6.14,0,0,1-6.14-6.14V9.271a6.14,6.14,0,0,1,6.14-6.14H21.85a6.14,6.14,0,0,1,6.14,6.14V21.85Z" data-name="Path 837"/><path id="Path_838" fill="#c64353" d="M141.049,133a8.049,8.049,0,1,0,8.049,8.049A8.058,8.058,0,0,0,141.049,133Zm0,12.967a4.918,4.918,0,1,1,4.918-4.918A4.918,4.918,0,0,1,141.049,145.967Z" data-name="Path 838" transform="translate(-125.489 -125.489)"/><circle id="Ellipse_83" cx="1.929" cy="1.929" r="1.929" fill="#c64353" data-name="Ellipse 83" transform="translate(21.696 5.643)"/></g></g><g id="Group_885" data-name="Group 885" transform="translate(1150.651 1467.695)"><g id="Group_251" data-name="Group 251" transform="translate(0 0)"><g id="Group_244-2" data-name="Group 244" opacity=".2" transform="translate(0 0)"><circle id="Ellipse_82-3" cx="35.872" cy="35.872" r="35.872" fill="#2263de" data-name="Ellipse 82"/></g></g><g id="Icon_19_" transform="translate(21.354 23.377)"><g id="Group_340" data-name="Group 340" transform="translate(0 0)"><path id="Path_871" fill="#2263de" d="M59.052,80h-24.2A2.856,2.856,0,0,0,32,82.848v17.8a2.856,2.856,0,0,0,2.848,2.848h24.2a2.856,2.856,0,0,0,2.848-2.848v-17.8A2.856,2.856,0,0,0,59.052,80ZM58.7,86.051,46.95,93.882,35.2,86.051V83.2L46.95,91.034,58.7,83.2Z" data-name="Path 871" transform="translate(-32 -80)"/></g></g></g><g id="Group_890" data-name="Group 890" transform="translate(1252.547 1170.325)"><text id="Campaign_Name:_Facebook_AD_copy" fill="#2263de" data-name="Campaign Name: Facebook AD copy" font-family="Rubik-Light, Rubik" font-size="14" font-weight="300" transform="translate(0 13)"><tspan x="0" y="0">Campaign Name: Facebook AD copy</tspan></text><text id="Think_your_business_is_too_small_for_professional_branding_Think_again._This_is_like_art_meeting_tech_" data-name="Think your business is too small for professional branding? Think again. This is like art meeting tech…" font-family="Rubik-Light, Rubik" font-size="15" font-weight="300" letter-spacing="-.02em" transform="translate(0 41.034)"><tspan x="0" y="0">Think your business is too small for professional branding? Think again. </tspan><tspan x="0" y="18">This is like art meeting tech…</tspan></text><text id="Https:_artculturebmc.com" data-name="Https://artculturebmc.com" font-family="Rubik-Light, Rubik" font-size="10" font-weight="300" letter-spacing="-.02em" opacity=".225" transform="translate(0 81.783)"><tspan x="0" y="0">https://artculturebmc.com</tspan></text></g><g id="Group_889" data-name="Group 889" transform="translate(1146.406 1081.824)"><text id="Quick_campaign_manager" fill="#2263de" data-name="Quick campaign manager" font-family="Rubik-Light, Rubik" font-size="17" font-weight="300" transform="translate(29.667 16)"><tspan x="0" y="0">Quick campaign manager</tspan></text><g id="Group_888" data-name="Group 888" transform="translate(0 2.275)"><g id="_726186" data-name="726186" transform="translate(0)"><g id="Group_227" data-name="Group 227" transform="translate(0 4.233)"><g id="Group_226" data-name="Group 226"><path id="Path_826" fill="#2263de" d="M8.592,132.91v-6.542c-.185.017-.369.046-.555.055H2.7a.536.536,0,0,0-.536.536v.536H.552a.536.536,0,0,0-.536.536v3.216a.536.536,0,0,0,.536.536H2.16v.536a.536.536,0,0,0,.536.536h.325L5.176,138.6a1.066,1.066,0,0,0,.789.667,1.049,1.049,0,0,0,.968-.295l1.287-1.277a1.07,1.07,0,0,0,.2-1.24l-1.8-3.6H8.042C8.227,132.863,8.409,132.892,8.592,132.91Z" data-name="Path 826" transform="translate(-0.016 -126.368)"/></g></g><g id="Group_229" data-name="Group 229" transform="translate(9.648)"><g id="Group_228" data-name="Group 228"><path id="Path_827" fill="#2263de" d="M295.432.259a.384.384,0,0,0-.034-.05.53.53,0,0,0-.224-.172s-.005-.005-.009-.006-.02,0-.031,0a.533.533,0,0,0-.15-.03.5.5,0,0,0-.1.021.6.6,0,0,0-.06.012.532.532,0,0,0-.235.152s-.011.005-.015.01a11.28,11.28,0,0,1-6.554,3.884V10.93a11.279,11.279,0,0,1,6.554,3.883c0,.005.012.008.017.014a.52.52,0,0,0,.133.1c.016.01.029.024.045.031a.552.552,0,0,0,.219.047.56.56,0,0,0,.181-.031s.005-.005.009-.006a.522.522,0,0,0,.224-.172c.013-.017.023-.032.034-.05a.518.518,0,0,0,.088-.277V.536A.518.518,0,0,0,295.432.259Z" data-name="Path 827" transform="translate(-288.016)"/></g></g></g></g></g><g id="Group_897" data-name="Group 897" transform="translate(88)"><text id="Quick_design_manager" fill="#2263de" data-name="Quick design manager" font-family="Rubik-Light, Rubik" font-size="17" font-weight="300" transform="translate(1426.186 1100.025)"><tspan x="0" y="0">Quick design manager</tspan></text><g id="Icon_8_" transform="translate(1394.307 1084.099)"><g id="Group_233" data-name="Group 233" transform="translate(0 0)"><path id="Path_828" fill="#2263de" d="M81.953,79.958V65.995A2,2,0,0,0,79.958,64H65.995A2,2,0,0,0,64,65.995V79.958a2,2,0,0,0,1.995,1.995H79.958A2,2,0,0,0,81.953,79.958ZM69.486,74.473l2.494,2.992,3.491-4.488,4.488,5.984H65.995Z" data-name="Path 828" transform="translate(-64 -64)"/></g></g></g><g id="Group_891" data-name="Group 891" transform="translate(1252.547 1316.931)"><text id="Campaign_Name:_Facebook_AD_copy-2" fill="#2263de" data-name="Campaign Name: Facebook AD copy" font-family="Rubik-Light, Rubik" font-size="14" font-weight="300" transform="translate(0 13)"><tspan x="0" y="0">Campaign Name: Facebook AD copy</tspan></text><text id="Think_your_business_is_too_small_for_professional_branding_Think_again._This_is_like_art_meeting_tech_2" data-name="Think your business is too small for professional branding? Think again. This is like art meeting tech…" font-family="Rubik-Light, Rubik" font-size="15" font-weight="300" letter-spacing="-.02em" transform="translate(0 41.034)"><tspan x="0" y="0">Think your business is too small for professional branding? Think again. </tspan><tspan x="0" y="18">This is like art meeting tech…</tspan></text><text id="Https:_artculturebmc.com-2" data-name="Https://artculturebmc.com" font-family="Rubik-Light, Rubik" font-size="10" font-weight="300" letter-spacing="-.02em" opacity=".225" transform="translate(0 81.783)"><tspan x="0" y="0">https://artculturebmc.com</tspan></text></g><g id="Group_892" data-name="Group 892" transform="translate(1252.547 1460.417)"><text id="Campaign_Name:_Facebook_AD_copy-3" fill="#2263de" data-name="Campaign Name: Facebook AD copy" font-family="Rubik-Light, Rubik" font-size="14" font-weight="300" transform="translate(0 13)"><tspan x="0" y="0">Campaign Name: Facebook AD copy</tspan></text><text id="Think_your_business_is_too_small_for_professional_branding_Think_again._This_is_like_art_meeting_tech_3" data-name="Think your business is too small for professional branding? Think again. This is like art meeting tech…" font-family="Rubik-Light, Rubik" font-size="15" font-weight="300" letter-spacing="-.02em" transform="translate(0 41.034)"><tspan x="0" y="0">Think your business is too small for professional branding? Think again. </tspan><tspan x="0" y="18">This is like art meeting tech…</tspan></text><text id="Https:_artculturebmc.com-3" data-name="Https://artculturebmc.com" font-family="Rubik-Light, Rubik" font-size="10" font-weight="300" letter-spacing="-.02em" opacity=".225" transform="translate(0 81.783)"><tspan x="0" y="0">https://artculturebmc.com</tspan></text></g><rect id="Rectangle_767" width="468.93" height="100.826" fill="#d2e0f9" data-name="Rectangle 767" opacity=".151" rx="20" transform="translate(1316.203 293.81)"/><line id="Line_48" x2="1138.533" fill="none" stroke="#777" stroke-width="1" data-name="Line 48" transform="translate(137.639 395.187)"/><text id="Analyze_Now" fill="#2263de" data-name="Analyze Now" font-family="Rubik-Regular, Rubik" font-size="48" transform="matrix(1, -0.017, 0.017, 1, 1404.328, 362.108)"><tspan x="0" y="0">Analyze Now</tspan></text><text id="Enter_up_to_20_words_minimum_4_to_analyse_anything" fill="#777" data-name="Enter up to 20 words (minimum 4) to analyse anything" font-family="Rubik-Regular, Rubik" font-size="24" transform="translate(138 352)"><tspan x="0" y="0">Enter up to 20 words (minimum 4) to analyse anything</tspan></text><text id="_" fill="#2263de" data-name="|" font-family="Rubik-Regular, Rubik" font-size="24" transform="translate(756 352)"><tspan x="0" y="0">|</tspan></text><text id="Today:_06_01_2021" fill="#777" data-name="Today: 06 | 01 | 2021" font-family="Rubik-Regular, Rubik" font-size="25" transform="translate(1537 194)"><tspan x="0" y="0">Today: 06 | 01 | 2021</tspan></text><g id="Group_896" data-name="Group 896" transform="translate(-12)"><rect id="Rectangle_222" width="212" height="49" fill="#2263de" data-name="Rectangle 222" rx="24.5" transform="translate(1409 36)"/><circle id="Ellipse_8" cx="12" cy="12" r="12" fill="#fff" data-name="Ellipse 8" opacity=".503" transform="translate(1578 49)"/><path id="ic_work_48px" fill="#fff" d="M19.29,7.4h-3.4V5.7a1.7,1.7,0,0,0-1.7-1.7H10.8A1.7,1.7,0,0,0,9.1,5.7V7.4H5.7a1.691,1.691,0,0,0-1.69,1.7L4,18.44a1.7,1.7,0,0,0,1.7,1.7H19.29a1.7,1.7,0,0,0,1.7-1.7V9.1A1.7,1.7,0,0,0,19.29,7.4Zm-5.1,0H10.8V5.7h3.4Z" transform="translate(1423.321 48)"/><path id="ic_navigate_next_48px" fill="#2263de" d="M6.839,0,8.451,1.613,3.226,6.839l5.226,5.226L6.839,13.677,0,6.839Z" transform="translate(1583.57 64.451) rotate(-90)"/><g id="Group_206" data-name="Group 206" transform="translate(1340 2)"><text id="Artculture_BMC" fill="#fff" data-name="Artculture BMC" font-family="Rubik-Light, Rubik" font-size="15" font-weight="300" transform="translate(117 67)"><tspan x="0" y="0">Artculture BMC</tspan></text><text id="WORKSPACE-2" fill="#fff" data-name="WORKSPACE" font-family="Rubik-Light, Rubik" font-size="7" font-weight="300" letter-spacing=".1em" transform="translate(117 53)"><tspan x="0" y="0">WORKSPACE</tspan></text></g><g id="notification" transform="translate(1714.729 45)"><g id="Group_4" data-name="Group 4" transform="translate(0)"><g id="Group_3" data-name="Group 3" transform="translate(0)"><path id="Path_10" fill="#2263de" d="M68.679,26.415l-2.24-3.735a11.093,11.093,0,0,1-1.582-5.708V13.7a9.146,9.146,0,0,0-6.524-8.749V2.61a2.61,2.61,0,0,0-5.22,0V4.952A9.146,9.146,0,0,0,46.589,13.7v3.271a11.1,11.1,0,0,1-1.58,5.706l-2.24,3.735a.654.654,0,0,0,.559.989H68.12a.652.652,0,0,0,.56-.988Z" data-name="Path 10" transform="translate(-42.675)"/></g></g><g id="Group_6" data-name="Group 6" transform="translate(8.939 28.708)"><g id="Group_5" data-name="Group 5"><path id="Path_11" fill="#2263de" d="M188.815,469.333a4.54,4.54,0,0,0,8.218,0Z" data-name="Path 11" transform="translate(-188.815 -469.333)"/></g></g></g><path id="Union_1" fill="#2263de" d="M0,21.409a9.227,9.227,0,0,1,.524-.866c.292-.435.657-.92,1.082-1.443a7.1,7.1,0,0,1,1.577-1.412,9.509,9.509,0,0,1,1.65-.871,10.724,10.724,0,0,1,1.3-.441c.325-.087.525-.122.527-.122a3.82,3.82,0,0,1,1-.154,2.093,2.093,0,0,1,.387.034,7.781,7.781,0,0,0,1.134.832,8,8,0,0,0,1.289.627,8.172,8.172,0,0,0,1.416.4,8.392,8.392,0,0,0,1.516.138,8.07,8.07,0,0,0,5.3-1.948,1.446,1.446,0,0,1,.278-.089h.059a5.462,5.462,0,0,1,.91.092,9.611,9.611,0,0,1,1.832.526c.445.23.864.464,1.246.7s.713.453,1.026.682.579.443.831.668a8.6,8.6,0,0,1,.663.657,7.013,7.013,0,0,1,.927,1.29,7.917,7.917,0,0,1,.431.91c-1.924,4.844-7.2,8.322-13.418,8.322C7.2,29.932,1.856,26.357,0,21.409ZM5.325,8.044a8.141,8.141,0,0,1,16.281,0,8.141,8.141,0,0,1-16.281,0Z" data-name="Union 1" transform="translate(1759.106 46)"/><path id="ic_help_48px" fill="#2263de" d="M17.523,4A13.523,13.523,0,1,0,31.047,17.523,13.52,13.52,0,0,0,17.523,4Zm1.352,22.99h-2.7v-2.7h2.7Zm2.793-10.474-1.21,1.244a4.571,4.571,0,0,0-1.582,3.82h-2.7V20.9a5.419,5.419,0,0,1,1.582-3.827l1.684-1.7a2.7,2.7,0,1,0-4.618-1.907h-2.7a5.409,5.409,0,0,1,10.819,0A4.292,4.292,0,0,1,21.668,16.516Z" transform="translate(1665.533 43)"/><g id="Group_241" data-name="Group 241" transform="translate(-92 1)"><g id="Group_236" data-name="Group 236"><text id="Create" fill="#747474" font-family="Rubik-Regular, Rubik" font-size="20" transform="translate(415 67)"><tspan x="0" y="0">Create</tspan></text><g id="Group_225" data-name="Group 225" transform="translate(138 -260.145)"><circle id="Ellipse_78-5" cx="15" cy="15" r="15" fill="#2263de" data-name="Ellipse 78" transform="translate(237 305.145)"/><path id="Union_15-2" fill="#fff" d="M4,10V8H2A2,2,0,0,1,2,4H4V2A2,2,0,0,1,8,2V4h2a2,2,0,0,1,0,4H8v2a2,2,0,0,1-4,0Z" data-name="Union 15" transform="translate(246 314.145)"/></g></g><g id="Group_237" data-name="Group 237" transform="translate(-19)"><text id="Campaigns" fill="#747474" font-family="Rubik-Regular, Rubik" font-size="20" transform="translate(586 67)"><tspan x="0" y="0">Campaigns</tspan></text><g id="Group_232" data-name="Group 232"><circle id="Ellipse_78-6" cx="15" cy="15" r="15" fill="#2263de" data-name="Ellipse 78" transform="translate(546 45)"/><g id="_726186-2" data-name="726186" transform="translate(553.984 53)"><g id="Group_227-2" data-name="Group 227" transform="translate(0.016 3.389)"><g id="Group_226-2" data-name="Group 226"><path id="Path_826-2" fill="#fff" d="M6.881,131.6v-5.236c-.148.014-.3.037-.445.044H2.161a.429.429,0,0,0-.429.429v.429H.445a.429.429,0,0,0-.429.429v2.574a.429.429,0,0,0,.429.429H1.732v.429a.429.429,0,0,0,.429.429h.26l1.725,4.6a.853.853,0,0,0,.632.534.84.84,0,0,0,.775-.236l1.031-1.022a.856.856,0,0,0,.158-.993L5.3,131.561h1.14C6.589,131.568,6.734,131.591,6.881,131.6Z" data-name="Path 826" transform="translate(-0.016 -126.368)"/></g></g><g id="Group_229-2" data-name="Group 229" transform="translate(7.739)"><g id="Group_228-2" data-name="Group 228"><path id="Path_827-2" fill="#fff" d="M293.953.208a.306.306,0,0,0-.027-.04.424.424,0,0,0-.179-.137s0,0-.007-.005-.016,0-.025,0a.427.427,0,0,0-.12-.024.4.4,0,0,0-.083.017.474.474,0,0,0-.048.009.426.426,0,0,0-.188.122s-.009,0-.012.008a9.03,9.03,0,0,1-5.247,3.109V8.75a9.029,9.029,0,0,1,5.247,3.108s.009.006.014.011a.416.416,0,0,0,.106.082c.013.008.023.019.036.025a.442.442,0,0,0,.175.038.448.448,0,0,0,.145-.025s0,0,.007-.005a.417.417,0,0,0,.179-.137c.01-.014.018-.026.027-.04a.415.415,0,0,0,.07-.221V.429A.415.415,0,0,0,293.953.208Z" data-name="Path 827" transform="translate(-288.016)"/></g></g></g></g></g><g id="Group_238" data-name="Group 238" transform="translate(-17)"><text id="Collaborate" fill="#747474" font-family="Rubik-Regular, Rubik" font-size="20" transform="translate(778 67)"><tspan x="0" y="0">Collaborate</tspan></text><g id="Group_231" data-name="Group 231" transform="translate(501 -260.145)"><circle id="Ellipse_78-7" cx="15" cy="15" r="15" fill="#2263de" data-name="Ellipse 78" transform="translate(237 305.145)"/></g><path id="ic_people_48px" fill="#fff" d="M12.194,14.078a2.039,2.039,0,1,0-2.039-2.039A2.035,2.035,0,0,0,12.194,14.078Zm-5.437,0a2.039,2.039,0,1,0-2.039-2.039A2.035,2.035,0,0,0,6.757,14.078Zm0,1.359c-1.587,0-4.757.8-4.757,2.379v1.7h9.514v-1.7C11.514,16.232,8.344,15.437,6.757,15.437Zm5.437,0c-.2,0-.418.014-.656.037a2.849,2.849,0,0,1,1.335,2.341v1.7h4.078v-1.7C16.951,16.232,13.781,15.437,12.194,15.437Z" transform="translate(744 45)"/></g><g id="Group_239" data-name="Group 239" transform="translate(-28)"><text id="My_designs" fill="#747474" data-name="My designs" font-family="Rubik-Regular, Rubik" font-size="20" transform="translate(985 67)"><tspan x="0" y="0">My designs</tspan></text><g id="Group_234" data-name="Group 234" transform="translate(708 -260.145)"><circle id="Ellipse_78-8" cx="15" cy="15" r="15" fill="#2263de" data-name="Ellipse 78" transform="translate(237 305.145)"/></g><g id="Icon_8_2" data-name="Icon_8_" transform="translate(890 -10)"><g id="Group_233-2" data-name="Group 233" transform="translate(64 64)"><path id="Path_828-2" fill="#fff" d="M76.908,75.474V65.434A1.438,1.438,0,0,0,75.474,64H65.434A1.438,1.438,0,0,0,64,65.434v10.04a1.438,1.438,0,0,0,1.434,1.434h10.04A1.438,1.438,0,0,0,76.908,75.474ZM67.944,71.53l1.793,2.151,2.51-3.227,3.227,4.3H65.434Z" data-name="Path 828" transform="translate(-64 -64)"/></g></g></g><g id="Group_240" data-name="Group 240" transform="translate(-12)"><text id="Integrations" fill="#747474" font-family="Rubik-Regular, Rubik" font-size="20" transform="translate(1163 67)"><tspan x="0" y="0">Integrations</tspan></text><g id="Group_235" data-name="Group 235" transform="translate(886 -260.145)"><circle id="Ellipse_78-9" cx="15" cy="15" r="15" fill="#2263de" data-name="Ellipse 78" transform="translate(237 305.145)"/></g><g id="gear" transform="translate(1131 53)"><g id="Group_14" data-name="Group 14"><path id="Path_15" fill="#fff" d="M14.673,5.724l-1.364-.341a6.31,6.31,0,0,0-.252-.6l.725-1.208a.311.311,0,0,0-.047-.379l-2.02-2.021a.311.311,0,0,0-.379-.047l-1.208.725a6.255,6.255,0,0,0-.6-.252L9.184.235A.31.31,0,0,0,8.883,0H6.026a.31.31,0,0,0-.3.235L5.383,1.6a6.27,6.27,0,0,0-.6.252L3.573,1.126a.311.311,0,0,0-.379.047L1.173,3.194a.311.311,0,0,0-.047.379l.725,1.208a6.291,6.291,0,0,0-.252.6L.235,5.724a.31.31,0,0,0-.235.3V8.883a.31.31,0,0,0,.235.3L1.6,9.525a6.309,6.309,0,0,0,.252.6l-.725,1.208a.311.311,0,0,0,.047.379l2.02,2.02a.312.312,0,0,0,.379.047l1.208-.725a6.291,6.291,0,0,0,.6.252l.341,1.364a.31.31,0,0,0,.3.235H8.883a.31.31,0,0,0,.3-.235l.341-1.364a6.309,6.309,0,0,0,.6-.252l1.208.725a.311.311,0,0,0,.379-.047l2.02-2.02a.311.311,0,0,0,.047-.379l-.725-1.208a6.291,6.291,0,0,0,.252-.6l1.364-.341a.31.31,0,0,0,.235-.3V6.026A.31.31,0,0,0,14.673,5.724ZM7.454,11.181a3.727,3.727,0,1,1,3.727-3.727A3.731,3.731,0,0,1,7.454,11.181Z" data-name="Path 15"/></g></g></g></g><path id="ic_navigate_next_48px-2" d="M6.839,0,8.451,1.613,3.226,6.839l5.226,5.226L6.839,13.677,0,6.839Z" data-name="ic_navigate_next_48px" transform="translate(1817.133 64.451) rotate(-90)"/></g><g id="Group_899" data-name="Group 899"><g id="Group_898" data-name="Group 898" transform="translate(0 -2)"><path id="ic_navigate_next_48px-3" fill="#2263de" d="M15.956,0V21.554L0,10.777Z" data-name="ic_navigate_next_48px" transform="translate(206.593 73.554) rotate(-180)"/><g id="Rectangle_768" fill="#2263de" stroke="#fff" stroke-width="1.5" data-name="Rectangle 768" transform="translate(69 46)"><rect width="128" height="33" stroke="none" rx="16.5"/><rect width="126.5" height="31.5" x=".75" y=".75" fill="none" rx="15.75"/></g></g><text id="Copykart" fill="#fff" font-family="Rubik-Medium, Rubik" font-size="17" font-weight="500" transform="translate(98 67)"><tspan x="0" y="0">Copykart</tspan></text></g></g></svg>