<svg xmlns="http://www.w3.org/2000/svg" width="44" height="44" viewBox="0 0 44 44"><g id="Group_871" data-name="Group 871" transform="translate(-1673 -38)"><circle id="Ellipse_77" cx="22" cy="22" r="22" fill="#2263de" data-name="Ellipse 77" opacity=".2" transform="translate(1673 38)"/><path id="Shape" fill="#2263de" d="M21.058,5.572a12.091,12.091,0,0,1,.567,3.944,12.193,12.193,0,0,1-9.576,11.7,12.547,12.547,0,0,1-5.567-.072.2.2,0,0,0-.228.3A11.416,11.416,0,1,0,21.344,5.325a.2.2,0,0,0-.285.247Zm3.184,4.651a.408.408,0,0,1,.693-.431,10.586,10.586,0,0,1,.7,1.341.408.408,0,1,1-.746.329,9.79,9.79,0,0,0-.65-1.238Zm1.438,9.383a.408.408,0,0,1-.756-.307,10.173,10.173,0,0,0,.583-5.883.408.408,0,1,1,.8-.163A10.988,10.988,0,0,1,25.68,19.607Z" transform="translate(1678.503 43.692)"/></g></svg>