<svg xmlns="http://www.w3.org/2000/svg" width="27.047" height="27.047" viewBox="0 0 27.047 27.047"><g id="Group_872" data-name="Group 872" transform="translate(-1735.533 -46.029)"><path id="ic_help_48px" fill="#2263de" d="M17.523,4A13.523,13.523,0,1,0,31.047,17.523,13.52,13.52,0,0,0,17.523,4Zm1.352,22.99h-2.7v-2.7h2.7Zm2.793-10.474-1.21,1.244a4.571,4.571,0,0,0-1.582,3.82h-2.7V20.9a5.419,5.419,0,0,1,1.582-3.827l1.684-1.7a2.7,2.7,0,1,0-4.618-1.907h-2.7a5.409,5.409,0,0,1,10.819,0A4.292,4.292,0,0,1,21.668,16.516Z" transform="translate(1731.533 42.029)"/></g></svg>