<svg xmlns="http://www.w3.org/2000/svg" width="30" height="30" viewBox="0 0 30 30"><g id="Group_869" data-name="Group 869" transform="translate(-1111 -46)"><g id="Group_235" data-name="Group 235" transform="translate(874 -259.145)"><circle id="Ellipse_78" cx="15" cy="15" r="15" fill="#2263de" data-name="Ellipse 78" transform="translate(237 305.145)"/></g><g id="gear" transform="translate(1119 54)"><g id="Group_14" data-name="Group 14"><path id="Path_15" fill="#fff" d="M14.673,5.724l-1.364-.341a6.31,6.31,0,0,0-.252-.6l.725-1.208a.311.311,0,0,0-.047-.379l-2.02-2.021a.311.311,0,0,0-.379-.047l-1.208.725a6.255,6.255,0,0,0-.6-.252L9.184.235A.31.31,0,0,0,8.883,0H6.026a.31.31,0,0,0-.3.235L5.383,1.6a6.27,6.27,0,0,0-.6.252L3.573,1.126a.311.311,0,0,0-.379.047L1.173,3.194a.311.311,0,0,0-.047.379l.725,1.208a6.291,6.291,0,0,0-.252.6L.235,5.724a.31.31,0,0,0-.235.3V8.883a.31.31,0,0,0,.235.3L1.6,9.525a6.309,6.309,0,0,0,.252.6l-.725,1.208a.311.311,0,0,0,.047.379l2.02,2.02a.312.312,0,0,0,.379.047l1.208-.725a6.291,6.291,0,0,0,.6.252l.341,1.364a.31.31,0,0,0,.3.235H8.883a.31.31,0,0,0,.3-.235l.341-1.364a6.309,6.309,0,0,0,.6-.252l1.208.725a.311.311,0,0,0,.379-.047l2.02-2.02a.311.311,0,0,0,.047-.379l-.725-1.208a6.291,6.291,0,0,0,.252-.6l1.364-.341a.31.31,0,0,0,.235-.3V6.026A.31.31,0,0,0,14.673,5.724ZM7.454,11.181a3.727,3.727,0,1,1,3.727-3.727A3.731,3.731,0,0,1,7.454,11.181Z" data-name="Path 15"/></g></g></g></svg>