<svg xmlns="http://www.w3.org/2000/svg" width="26.914" height="29.932" viewBox="0 0 26.914 29.932">
  <g id="Group_873" data-name="Group 873" transform="translate(-1825.106 -44.676)">
    <path id="Union_1" data-name="Union 1" d="M0,21.409a9.227,9.227,0,0,1,.524-.866c.292-.435.657-.92,1.082-1.443a7.1,7.1,0,0,1,1.577-1.412,9.509,9.509,0,0,1,1.65-.871,10.724,10.724,0,0,1,1.3-.441c.325-.087.525-.122.527-.122a3.82,3.82,0,0,1,1-.154,2.093,2.093,0,0,1,.387.034,7.781,7.781,0,0,0,1.134.832,8,8,0,0,0,1.289.627,8.172,8.172,0,0,0,1.416.4,8.392,8.392,0,0,0,1.516.138,8.07,8.07,0,0,0,5.3-1.948,1.446,1.446,0,0,1,.278-.089h.059a5.462,5.462,0,0,1,.91.092,9.611,9.611,0,0,1,1.832.526c.445.23.864.464,1.246.7s.713.453,1.026.682.579.443.831.668a8.6,8.6,0,0,1,.663.657,7.013,7.013,0,0,1,.927,1.29,7.917,7.917,0,0,1,.431.91c-1.924,4.844-7.2,8.322-13.418,8.322C7.2,29.932,1.856,26.357,0,21.409ZM5.325,8.044a8.141,8.141,0,0,1,16.281,0,8.141,8.141,0,0,1-16.281,0Z" transform="translate(1825.106 44.676)" fill="#2263de"/>
  </g>
</svg>
