<svg id="Group_880" data-name="Group 880" xmlns="http://www.w3.org/2000/svg" width="71.743" height="71.743" viewBox="0 0 71.743 71.743">
  <g id="Group_247" data-name="Group 247" transform="translate(0 0)">
    <g id="Group_244" data-name="Group 244" transform="translate(0)">
      <circle id="Ellipse_82" data-name="Ellipse 82" cx="35.872" cy="35.872" r="35.872" transform="translate(0)" fill="#ffd9db"/>
    </g>
  </g>
  <g id="instagram" transform="translate(20.392 20.409)">
    <path id="Path_837" data-name="Path 837" d="M21.85,0H9.271A9.281,9.281,0,0,0,0,9.271V21.85a9.281,9.281,0,0,0,9.271,9.271H21.85a9.281,9.281,0,0,0,9.271-9.271V9.271A9.282,9.282,0,0,0,21.85,0Zm6.14,21.85a6.14,6.14,0,0,1-6.14,6.14H9.271a6.14,6.14,0,0,1-6.14-6.14V9.271a6.14,6.14,0,0,1,6.14-6.14H21.85a6.14,6.14,0,0,1,6.14,6.14V21.85Z" fill="#c64353"/>
    <path id="Path_838" data-name="Path 838" d="M141.049,133a8.049,8.049,0,1,0,8.049,8.049A8.058,8.058,0,0,0,141.049,133Zm0,12.967a4.918,4.918,0,1,1,4.918-4.918A4.918,4.918,0,0,1,141.049,145.967Z" transform="translate(-125.489 -125.489)" fill="#c64353"/>
    <circle id="Ellipse_83" data-name="Ellipse 83" cx="1.929" cy="1.929" r="1.929" transform="translate(21.696 5.643)" fill="#c64353"/>
  </g>
</svg>
